<svg xmlns="http://www.w3.org/2000/svg" xmlns:xlink="http://www.w3.org/1999/xlink" width="39.828" height="52.84" viewBox="0 0 39.828 52.84"><defs fill="#28aa7f"><style>.a{fill:url(#a);}</style><linearGradient id="a" x1="-0.097" y1="0.14" x2="0.901" y2="0.892" gradientUnits="objectBoundingBox" fill="#28aa7f"><stop offset="0" stop-color="#28aa7f" fill="#28aa7f"/><stop offset="0.2" stop-color="#28aa7f" fill="#28aa7f"/><stop offset="0.5" stop-color="#28aa7f" fill="#28aa7f"/><stop offset="0.8" stop-color="#28aa7f" fill="#28aa7f"/><stop offset="1" stop-color="#28aa7f" fill="#28aa7f"/></linearGradient></defs><path class="a" d="M206.564,805.992a13.066,13.066,0,0,1,4.247,9.562l0,.729a12.988,12.988,0,0,1-12.987,13.049h-.32l.019,3.851h-8.38l-.02-3.851h-3.434l.019,3.851h-8.38l-.019-3.851H171.2l-.04-8.38h4.156l-.05-10.065-.04-8.384-.045-9.066h-4.155l-.04-8.384H177.1l-.023-4.71h8.381l.021,4.71h3.435l-.023-4.71h8.379l.023,4.751a12.652,12.652,0,0,1,11.87,12.532l0,.689A12.436,12.436,0,0,1,206.564,805.992Zm-4.128,10.291,0-.729a4.7,4.7,0,0,0-4.694-4.667h-14.09l.048,10.065h14.09a4.651,4.651,0,0,0,4.651-4.669m-18.874-22.846.044,9.066h13.007a4.17,4.17,0,0,0,4.171-4.188l0-.689a4.22,4.22,0,0,0-4.212-4.189H183.562" transform="translate(-170.986 -780.343)" fill="#28aa7f"/></svg>