<svg width="36.527" height="52.843" xmlns="http://www.w3.org/2000/svg">

 <g>
  <title>Layer 1</title>
  <g id="svg_1">
   <path id="svg_2" fill="#28aa7f" d="m36.527,1.67101a1.67,1.67 0 0 1 -1.67,1.67l-33.192,0a1.67,1.67 0 0 1 -1.67,-1.67l0,0a1.67,1.67 0 0 1 1.67,-1.671l33.187,0a1.67,1.67 0 0 1 1.67,1.671l0.005,0z" class="a"/>
   <path id="svg_3" fill="#28aa7f" d="m36.527,51.173a1.671,1.671 0 0 1 -1.67,1.671l-33.192,0a1.671,1.671 0 0 1 -1.67,-1.671l0,0a1.67,1.67 0 0 1 1.67,-1.67l33.187,0a1.67,1.67 0 0 1 1.67,1.67l0.005,0z" class="a"/>
   <path id="svg_4" fill="#28aa7f" d="m2.227,4.35099l0,44.323l32.072,0l0,-44.323l-32.072,0zm16.037,33.43a10.607,10.607 0 1 1 10.607,-10.607a10.606,10.606 0 0 1 -10.607,10.607z" class="a"/>
   <path id="svg_5" fill="#28aa7f" d="m21.81901,26.561l0.036,0l-3.619,-6.07l-3.564,6.07l0.037,0a4.307,4.307 0 0 0 -1.095,2.84a4.653,4.653 0 0 0 9.3,0a4.311,4.311 0 0 0 -1.095,-2.84z" class="a"/>
   <path id="svg_6" fill="#28aa7f" d="m36.02,8.96801c0,1.149 -1.534,2.08 -3.425,2.08l-28.66,0c-1.892,0 -3.426,-0.931 -3.426,-2.08l0,0c0,-1.148 1.534,-2.079 3.426,-2.079l28.659,0c1.891,0 3.425,0.931 3.425,2.079l0.001,0z" class="a"/>
   <path id="svg_7" fill="#28aa7f" d="m36.019,44.94401c0,1.148 -1.534,2.079 -3.425,2.079l-28.66,0c-1.892,0 -3.426,-0.931 -3.426,-2.079l0,0c0,-1.149 1.534,-2.079 3.426,-2.079l28.659,0c1.891,0 3.425,0.93 3.425,2.079l0.001,0z" class="a"/>
   <path id="svg_8" fill="#28aa7f" d="m7.679,26.75201l-6.385,0c-0.434,0 -0.785,0.637 -0.785,1.423s0.351,1.424 0.785,1.424l6.652,0a10.587,10.587 0 0 1 -0.289,-2.426c0,-0.142 0.016,-0.281 0.022,-0.421z" class="a"/>
   <path id="svg_9" fill="#28aa7f" d="m35.234,26.75201l-6.385,0c0.006,0.14 0.021,0.279 0.021,0.421a10.587,10.587 0 0 1 -0.289,2.426l6.653,0c0.434,0 0.785,-0.637 0.785,-1.424s-0.35,-1.423 -0.785,-1.423z" class="a"/>
  </g>
 </g>
</svg>