<svg width="52.999" height="52.999" xmlns="http://www.w3.org/2000/svg">

 <g>
  <title>Layer 1</title>
  <path id="svg_1" fill="#28aa7f" d="m30.63206,47.066a8.109,8.109 0 0 1 -1.667,0.948q-0.828,0.1 -1.667,0.125l0,-9.658c1.072,0.015 2.144,0.077 3.213,0.163a11.806,11.806 0 0 1 0.662,-1.513c-1.288,-0.129 -2.584,-0.217 -3.875,-0.242l0,-9.559l10.883,0a35.679,35.679 0 0 1 -0.291,4.052a12.119,12.119 0 0 1 1.646,-0.438c0.138,-1.212 0.232,-2.426 0.25,-3.647l0,0.033l8.351,0a21.486,21.486 0 0 1 -0.746,4.823a12.009,12.009 0 0 1 3.991,3.482a26.5,26.5 0 0 0 -33.367,-34.239a9.654,9.654 0 0 1 2.85,5.827a9.343,9.343 0 0 1 3.166,-2.236c0.552,-0.063 1.111,-0.1 1.671,-0.125l0,9.658a47.242,47.242 0 0 1 -6.608,-0.55a10.11,10.11 0 0 1 -1.179,1.348a48.467,48.467 0 0 0 7.786,0.8l0,9.559l-10.887,0a37.069,37.069 0 0 1 1.225,-8.955a9.729,9.729 0 0 1 -1.817,0.809a38.248,38.248 0 0 0 -1.013,8.179l0,-0.033l-8.35,0a21.564,21.564 0 0 1 2.181,-8.651a9.744,9.744 0 0 1 -3.783,-3.252a26.5,26.5 0 0 0 30.861,38.114a12.076,12.076 0 0 1 -3.487,-4.816m17.5,-21.331l-8.351,0a38.086,38.086 0 0 0 -1.752,-10.939a35.526,35.526 0 0 0 5.383,-1.8a21.531,21.531 0 0 1 4.72,12.736m-5.843,-14.034a34.954,34.954 0 0 1 -4.79,1.555a20,20 0 0 0 -4.62,-7.454a21.7,21.7 0 0 1 9.41,5.9m-15,-6.84q0.841,0.03 1.667,0.125c2.864,1.16 5.342,4.289 7.009,8.608a47.125,47.125 0 0 1 -8.676,0.924l0,-9.657zm0,11.251a48.719,48.719 0 0 0 9.206,-1a36.884,36.884 0 0 1 1.677,10.62l-10.874,0l-0.009,-9.62zm-22.429,11.122l8.35,0.023a38.218,38.218 0 0 0 1.752,10.918a35.848,35.848 0 0 0 -5.394,1.8a21.552,21.552 0 0 1 -4.708,-12.743m5.8,14.008a34.521,34.521 0 0 1 4.827,-1.57a19.974,19.974 0 0 0 4.63,7.518a21.671,21.671 0 0 1 -9.457,-5.948m15.043,6.888q-0.84,-0.03 -1.665,-0.124c-2.867,-1.161 -5.341,-4.289 -7.012,-8.609a47.211,47.211 0 0 1 8.677,-0.925l0,9.658zm0,-11.315a48.991,48.991 0 0 0 -9.21,1a37.152,37.152 0 0 1 -1.677,-10.525l0,-0.031l10.887,0l0,9.556z" class="a"/>
  <path id="svg_2" fill="#28aa7f" d="m41.44697,31.832a10.584,10.584 0 1 0 10.582,10.584a10.586,10.586 0 0 0 -10.582,-10.584m2.887,14.67a3.37,3.37 0 0 1 -2.257,1.032l0,1.5l-1.252,0l0,-1.489a3.281,3.281 0 0 1 -3.047,-2.859l1.937,-0.5a1.685,1.685 0 0 0 1.784,1.636a1.383,1.383 0 0 0 1.04,-0.348a1.188,1.188 0 0 0 0.335,-0.847a0.925,0.925 0 0 0 -0.335,-0.776a5.945,5.945 0 0 0 -1.483,-0.674a8.58,8.58 0 0 1 -1.611,-0.71a2.654,2.654 0 0 1 -0.946,-0.978a2.906,2.906 0 0 1 -0.364,-1.47a3.266,3.266 0 0 1 0.649,-1.978a2.9,2.9 0 0 1 2.04,-1.075l0,-1.158l1.252,0l0,1.158a3.028,3.028 0 0 1 2.72,2.377l-1.727,0.707c-0.339,-0.97 -0.856,-1.456 -1.561,-1.456a1.137,1.137 0 0 0 -0.853,0.326a1.087,1.087 0 0 0 -0.32,0.788a0.888,0.888 0 0 0 0.307,0.728a5.332,5.332 0 0 0 1.326,0.623a11.6,11.6 0 0 1 1.752,0.772a2.757,2.757 0 0 1 1.016,1a2.886,2.886 0 0 1 0.376,1.494a3.156,3.156 0 0 1 -0.78,2.186" class="a"/>
  <path id="svg_3" fill="#28aa7f" d="m11.38794,0a8.311,8.311 0 1 0 8.311,8.312a8.312,8.312 0 0 0 -8.311,-8.312m2.266,11.522a2.644,2.644 0 0 1 -1.77,0.807l0,1.177l-0.988,0l0,-1.168a2.582,2.582 0 0 1 -2.391,-2.244l1.522,-0.4a1.324,1.324 0 0 0 1.4,1.287a1.083,1.083 0 0 0 0.819,-0.276a0.92,0.92 0 0 0 0.26,-0.664a0.726,0.726 0 0 0 -0.26,-0.61a4.728,4.728 0 0 0 -1.164,-0.528a6.859,6.859 0 0 1 -1.269,-0.556a2.077,2.077 0 0 1 -0.74,-0.769a2.235,2.235 0 0 1 -0.286,-1.155a2.563,2.563 0 0 1 0.507,-1.555a2.275,2.275 0 0 1 1.6,-0.842l0,-0.908l0.994,0l0,0.908a2.384,2.384 0 0 1 2.135,1.867l-1.354,0.556c-0.267,-0.764 -0.679,-1.146 -1.229,-1.146a0.9,0.9 0 0 0 -0.668,0.258a0.845,0.845 0 0 0 -0.254,0.619a0.694,0.694 0 0 0 0.244,0.571a4.358,4.358 0 0 0 1.041,0.491a9.49,9.49 0 0 1 1.376,0.6a2.134,2.134 0 0 1 0.793,0.787a2.235,2.235 0 0 1 0.3,1.171a2.491,2.491 0 0 1 -0.612,1.72" class="a"/>
 </g>
</svg>