<svg width="54.206" height="52.518" xmlns="http://www.w3.org/2000/svg">

 <g>
  <title>Layer 1</title>
  <path id="svg_1" fill="#28aa7f" d="m53.697,41.23302l-5.554,0.838a0.036,0.036 0 0 1 -0.034,-0.059a26.248,26.248 0 0 0 -25.484,-41.626a1.341,1.341 0 0 0 -0.2,0.034a26.249,26.249 0 0 0 -9.27,3.583l-0.014,0.01l-0.04,0.03a0.159,0.159 0 0 0 -0.038,0.026l-0.03,0.028l-0.043,0.036l-0.022,0.024a0.509,0.509 0 0 0 -0.043,0.049l-0.016,0.02c-0.014,0.018 -0.028,0.034 -0.04,0.053l-0.018,0.028l-0.03,0.051l-0.02,0.04l-0.02,0.043l-0.02,0.049l-0.012,0.04l-0.014,0.051l-0.012,0.04l-0.008,0.047a0.481,0.481 0 0 0 -0.006,0.051l0,0.04l0,0.057l0,0.014l0,17.066a0.035,0.035 0 0 1 -0.034,0.034a2.605,2.605 0 0 0 -2.435,2.595l0,10.992a2.607,2.607 0 0 0 2.435,2.6a0.033,0.033 0 0 1 0.034,0.034l0,7.6a0.038,0.038 0 0 1 -0.059,0.03a24.483,24.483 0 0 1 -2.718,-2.346a24.3,24.3 0 0 1 -2.085,-32a0.037,0.037 0 0 1 0.067,0.02l0.468,6.064a0.325,0.325 0 0 0 0.35,0.3l0.909,-0.071a0.324,0.324 0 0 0 0.3,-0.348l-0.67,-8.677a0.324,0.324 0 0 0 -0.372,-0.3l-8.606,1.3a0.328,0.328 0 0 0 -0.273,0.372l0.136,0.9a0.325,0.325 0 0 0 0.37,0.273l5.556,-0.838a0.035,0.035 0 0 1 0.034,0.057a26.26,26.26 0 0 0 34.3,38.408l0.045,-0.03a0.973,0.973 0 0 0 0.6,-0.9l0,-12.6a0.039,0.039 0 0 1 0.036,-0.036a2.6,2.6 0 0 0 2.479,-2.6l0,-18.23a2.64,2.64 0 0 0 -2.641,-2.639a0.037,0.037 0 0 1 -0.036,-0.039l0,-5.522a0.037,0.037 0 0 1 0.059,-0.032a24.3,24.3 0 0 1 5.434,34.791a0.038,0.038 0 0 1 -0.067,-0.022l-0.486,-6.054a0.327,0.327 0 0 0 -0.35,-0.3l-0.909,0.071a0.326,0.326 0 0 0 -0.3,0.35l0.67,8.675a0.323,0.323 0 0 0 0.372,0.3l8.606,-1.3a0.324,0.324 0 0 0 0.273,-0.368l-0.136,-0.9a0.322,0.322 0 0 0 -0.37,-0.271m-39.046,-3.082a0.039,0.039 0 0 1 0.036,-0.039a2.6,2.6 0 0 0 2.524,-2.6l0,-10.991a2.6,2.6 0 0 0 -2.524,-2.6a0.035,0.035 0 0 1 -0.036,-0.034l0,-16.495a0.036,0.036 0 0 1 0.02,-0.03a24.21,24.21 0 0 1 7.007,-2.8a0.04,0.04 0 0 1 0.047,0.038l0,9.43a0.035,0.035 0 0 1 -0.036,0.034a2.606,2.606 0 0 0 -2.479,2.6l0,16.552a2.6,2.6 0 0 0 2.479,2.6a0.036,0.036 0 0 1 0.036,0.036l0,16.056a0.04,0.04 0 0 1 -0.047,0.036a24.3,24.3 0 0 1 -7.007,-2.809a0.041,0.041 0 0 1 -0.02,-0.034l0,-8.95zm9.022,12.125l0,-16.428a0.035,0.035 0 0 1 0.034,-0.036a2.6,2.6 0 0 0 2.479,-2.6l0,-16.55a2.606,2.606 0 0 0 -2.479,-2.6a0.033,0.033 0 0 1 -0.034,-0.034l0,-9.806a0.036,0.036 0 0 1 0.032,-0.037a24.329,24.329 0 0 1 5.993,-0.105c0.223,0.022 0.447,0.053 0.67,0.083a0.037,0.037 0 0 1 0.032,0.036l0,16.677a0.036,0.036 0 0 1 -0.036,0.034a2.6,2.6 0 0 0 -2.479,2.6l0,16.947a2.6,2.6 0 0 0 2.479,2.6a0.038,0.038 0 0 1 0.036,0.037l0,9.217a0.037,0.037 0 0 1 -0.032,0.036a24.329,24.329 0 0 1 -6.663,-0.024a0.036,0.036 0 0 1 -0.032,-0.039m15.259,-38.436a0.036,0.036 0 0 1 -0.034,0.036a2.6,2.6 0 0 0 -2.317,2.587l0,18.267a2.6,2.6 0 0 0 2.479,2.6a0.037,0.037 0 0 1 0.034,0.036l0,12.002a0.033,0.033 0 0 1 -0.018,0.03a24.176,24.176 0 0 1 -6.679,2.575a0.036,0.036 0 0 1 -0.045,-0.036l0,-8.855a0.036,0.036 0 0 1 0.034,-0.037a2.606,2.606 0 0 0 2.479,-2.6l0,-16.945a2.6,2.6 0 0 0 -2.479,-2.6a0.034,0.034 0 0 1 -0.034,-0.034l0,-16.311a0.037,0.037 0 0 1 0.045,-0.036a24.339,24.339 0 0 1 6.515,2.481a0.039,0.039 0 0 1 0.02,0.034l0,6.806z" class="a"/>
 </g>
</svg>