<svg width="67.224" height="52.659" xmlns="http://www.w3.org/2000/svg">

 <g>
  <title>Layer 1</title>
  <path id="svg_1" fill="#28aa7f" d="m48.697,29.818a3.141,3.141 0 0 1 -2.757,1.725l-24.667,0a3.148,3.148 0 0 1 -2.755,-1.725a3.693,3.693 0 0 1 0,-3.447l6.167,-11.569a3.136,3.136 0 0 1 2.756,-1.721l12.328,0a3.142,3.142 0 0 1 2.758,1.721l6.167,11.569a3.679,3.679 0 0 1 0.003,3.447zm6.659,-15.608l-1.1,5.159l-5.164,1.1l5.164,1.1l1.1,5.159l1.1,-5.159l5.166,-1.1l-5.166,-1.1l-1.1,-5.159zm-40.036,-6.022l-1.1,5.157l-5.166,1.1l5.166,1.1l1.1,5.16l1.1,-5.16l5.164,-1.1l-5.164,-1.1l-1.1,-5.157zm26.286,-8.188l-1.1,5.159l-5.164,1.1l5.164,1.1l1.1,5.162l1.1,-5.162l5.164,-1.1l-5.164,-1.1l-1.1,-5.159z" class="a"/>
  <path id="svg_2" fill="#28aa7f" d="m30.60001,47.487l-6.16,-11.569a3.141,3.141 0 0 0 -2.755,-1.721l-12.335,0a3.139,3.139 0 0 0 -2.755,1.721l-6.167,11.569a3.688,3.688 0 0 0 0,3.447a3.143,3.143 0 0 0 2.756,1.725l24.656,0a3.147,3.147 0 0 0 2.755,-1.725a3.7,3.7 0 0 0 0.005,-3.447z" class="a"/>
  <path id="svg_3" fill="#28aa7f" d="m66.796,47.487l-6.167,-11.569a3.14,3.14 0 0 0 -2.754,-1.721l-12.333,0a3.145,3.145 0 0 0 -2.756,1.721l-6.164,11.569a3.7,3.7 0 0 0 0,3.447a3.142,3.142 0 0 0 2.754,1.725l24.665,0a3.149,3.149 0 0 0 2.758,-1.725a3.69,3.69 0 0 0 -0.003,-3.447z" class="a"/>
 </g>
</svg>