<svg width="70.817" height="70" xmlns="http://www.w3.org/2000/svg">

 <g>
  <title>Layer 1</title>
  <path id="svg_1" fill="#28aa7f" d="m28.117,16.567l0.117,0.117a8.812,8.812 0 0 0 5.366,3.966l0.233,0l0,46.083l-22.166,0l0,3.267l47.6,0l0,-3.267l-22.167,0l0,-45.966l0.35,-0.117c0.233,0 0.35,-0.117 0.467,-0.117a8.231,8.231 0 0 0 5.716,-8.633l0,-0.233l0.233,0l26.95,-8.517l-1.049,-3.15l-27.067,8.633l-0.117,-0.117a9.093,9.093 0 0 0 -3.383,-3.266a8.283,8.283 0 0 0 -11.2,3.5a8.887,8.887 0 0 0 -0.933,4.55l0,0.233l-0.233,0l-26.834,8.634l0.933,3.033l27.184,-8.633zm2.683,-6.3a4.626,4.626 0 0 1 3.033,-2.45a4.914,4.914 0 0 1 3.85,0.35a5.133,5.133 0 0 1 -0.7,9.45a6.828,6.828 0 0 1 -1.517,0.233a5.3,5.3 0 0 1 -4.9,-3.5a5.406,5.406 0 0 1 0.233,-4.083l0.001,0z" class="a"/>
  <path id="svg_2" fill="#28aa7f" d="m9.334,39.433c-0.117,-2.333 -1.283,-3.5 -3.617,-3.5a3.841,3.841 0 0 0 -2.217,0.7l-0.35,0.233l0.35,-3.383l5.133,0l0,-1.75l-7,0l-0.35,6.3l1.867,0a2.463,2.463 0 0 1 1.867,-0.7a1.941,1.941 0 0 1 2.1,2.217c-0.117,1.283 -0.817,2.1 -1.983,2.1l0,0a2.1,2.1 0 0 1 -2.1,-1.75l-2.217,0.466c0.7,1.983 2.1,2.8 4.317,2.8c2.8,0 4.2,-1.283 4.2,-3.733z" class="a"/>
  <path id="svg_3" fill="#28aa7f" d="m14.467,31.5c-2.8,0.117 -4.2,2.1 -4.317,5.95c0,3.85 1.4,5.717 4.317,5.717a3.883,3.883 0 0 0 2.917,-1.05c0.933,-0.933 1.4,-2.567 1.4,-4.783l0,0c-0.001,-3.851 -1.517,-5.834 -4.317,-5.834zm1.05,9.8a1.479,1.479 0 0 1 -1.05,0.467c-1.283,0 -1.983,-1.4 -1.983,-4.317c0,-2.1 0.35,-3.383 0.933,-3.967a1.426,1.426 0 0 1 1.05,-0.35l0,0a1.882,1.882 0 0 1 1.05,0.35c0.583,0.583 0.933,1.867 0.933,4.083a5.548,5.548 0 0 1 -0.933,3.734z" class="a"/>
  <path id="svg_4" fill="#28aa7f" d="m23.8,31.5c-2.8,0.117 -4.2,2.1 -4.317,5.95c0,3.85 1.4,5.717 4.317,5.717a3.883,3.883 0 0 0 2.917,-1.05c0.933,-0.933 1.4,-2.567 1.4,-4.783l0,0c-0.001,-3.851 -1.401,-5.834 -4.317,-5.834zm1.167,9.8a1.479,1.479 0 0 1 -1.05,0.467c-1.283,0 -1.983,-1.4 -1.983,-4.317c0,-2.1 0.35,-3.383 0.933,-3.967a1.077,1.077 0 0 1 1.05,-0.35a1.882,1.882 0 0 1 1.05,0.35c0.583,0.583 0.933,1.867 0.933,4.083c-0.117,1.867 -0.35,3.151 -0.934,3.734l0.001,0z" class="a"/>
  <path id="svg_5" fill="#28aa7f" d="m29.05,44.8l-29.05,0l0.467,1.633a14.85,14.85 0 0 0 14,10.85a14.85,14.85 0 0 0 14,-10.85l0.583,-1.633zm-3.383,2.8a12.337,12.337 0 0 1 -11.2,7.233a12.538,12.538 0 0 1 -11.2,-7.233l-0.117,-0.233l22.633,0l-0.116,0.233z" class="a"/>
  <path id="svg_6" fill="#28aa7f" d="m58.217,25.434l0,-11.317l-1.75,0a8.938,8.938 0 0 1 -4.2,3.15l0,1.867a18.59,18.59 0 0 0 3.383,-1.75l0.35,-0.233l0,8.4l2.217,0l0,-0.117z" class="a"/>
  <path id="svg_7" fill="#28aa7f" d="m56.233,40.133a14.744,14.744 0 0 0 14,-10.85l0.467,-1.633l-29.05,0l0.467,1.633a14.987,14.987 0 0 0 14.116,10.85zm11.2,-10.033l-0.117,0.233a12.215,12.215 0 0 1 -11.2,7.233a12.538,12.538 0 0 1 -11.2,-7.233l-0.117,-0.233l22.634,0z" class="a"/>
 </g>
</svg>