<svg width="77.986" height="70" xmlns="http://www.w3.org/2000/svg">
 <defs>
  <clipPath id="b">
   <rect id="svg_1" fill="url(#a)" height="70" width="77.986" class="a"/>
  </clipPath>
  <linearGradient gradientUnits="objectBoundingBox" y2="1" x2="0.5" x1="0.5" id="a">
   <stop stop-color="#a0762f" offset="0"/>
   <stop stop-color="#fdc778" offset="0.158"/>
   <stop stop-color="#ebcb88" offset="0.505"/>
   <stop stop-color="#009688" offset="0.854"/>
   <stop stop-color="#a0762f" offset="1"/>
  </linearGradient>
 </defs>
 <g>
  <title>Layer 1</title>
  <g id="svg_2" clip-path="url(#b)" class="b">
   <path id="svg_3" fill="#28aa7f" d="m77.986,35.635l-4.421,0l0,-1.159a34.641,34.641 0 0 0 -21.144,-31.764a34.285,34.285 0 0 0 -6.472,-2.012a34.894,34.894 0 0 0 -11.275,-0.431a1.3,1.3 0 0 0 -0.9,0.54a1.4,1.4 0 0 0 -0.24,1.091a1.322,1.322 0 0 0 0.479,0.78a1.425,1.425 0 0 0 0.889,0.307a1.446,1.446 0 0 0 0.182,-0.012a32.331,32.331 0 0 1 3.917,-0.237a31.9,31.9 0 0 1 31.83,31.721l0,1.17l-4.233,0l5.676,8.42l5.712,-8.414z" class="a"/>
   <path id="svg_4" fill="#28aa7f" d="m24.811,5.925a1.395,1.395 0 0 0 0.973,-2.34a1.361,1.361 0 0 0 -1.923,0l-0.02,0.02l-0.021,0.02a0.733,0.733 0 0 0 -0.116,0.15l-0.019,0.03l-0.021,0.028a1.024,1.024 0 0 0 -0.109,0.186a1.612,1.612 0 0 0 -0.075,0.247l0,0.049a1.152,1.152 0 0 0 -0.027,0.245a1.409,1.409 0 0 0 0.406,0.972a1.386,1.386 0 0 0 0.946,0.394l0.006,-0.001z" class="a"/>
   <path id="svg_5" fill="#28aa7f" d="m15.501,11.078a0.989,0.989 0 1 1 0.008,0l-0.008,0z" class="a"/>
   <path id="svg_6" fill="#28aa7f" d="m9.092,18.78a1.368,1.368 0 1 0 0.139,-1.931l0,0a1.372,1.372 0 0 0 -0.13,1.929l-0.009,0.002z" class="a"/>
   <path id="svg_7" fill="#28aa7f" d="m43.971,67.326a1.427,1.427 0 0 0 -0.889,-0.307a1.48,1.48 0 0 0 -0.184,0.012a32.54,32.54 0 0 1 -3.916,0.24a31.9,31.9 0 0 1 -31.83,-31.717l0,-1.17l4.235,0l-5.68,-8.422l-5.707,8.397l4.421,0l0,1.159a34.567,34.567 0 0 0 38.899,34.208a1.3,1.3 0 0 0 0.9,-0.539a1.4,1.4 0 0 0 0.234,-1.087a1.319,1.319 0 0 0 -0.479,-0.777l-0.004,0.003z" class="a"/>
   <path id="svg_8" fill="#28aa7f" d="m53.169,64.081a1.395,1.395 0 0 0 -0.973,2.34a1.359,1.359 0 0 0 1.922,0l0.02,-0.02l0.021,-0.02a0.727,0.727 0 0 0 0.115,-0.15l0.019,-0.03l0.02,-0.028a0.978,0.978 0 0 0 0.11,-0.187a1.7,1.7 0 0 0 0.074,-0.244l0,-0.046a1.141,1.141 0 0 0 0.027,-0.244a1.373,1.373 0 0 0 -1.351,-1.368l-0.004,-0.003z" class="a"/>
   <path id="svg_9" fill="#28aa7f" d="m62.477,58.923a1.029,1.029 0 1 1 -0.008,0l0.008,0z" class="a"/>
   <path id="svg_10" fill="#28aa7f" d="m68.88,51.229a0.989,0.989 0 1 1 -0.008,0l0.008,0z" class="a"/>
   <path id="svg_11" fill="#28aa7f" d="m35.441,36.076l-0.015,-0.01a19.371,19.371 0 0 0 -4.49,-2.01a11.531,11.531 0 0 1 -4.008,-2.032a3.63,3.63 0 0 1 -1.081,-2.833a3.86,3.86 0 0 1 1.166,-2.951a4.777,4.777 0 0 1 3.105,-1.149c0.1,0 0.191,0 0.342,0.009l0.21,-0.005a4.252,4.252 0 0 1 3.141,1.385a5.646,5.646 0 0 1 1.269,3.883l-0.03,0.575l3.121,0l0.028,-0.516a8.687,8.687 0 0 0 -1.78,-5.758a7.114,7.114 0 0 0 -4.516,-2.39l0,-3.51l-2.832,0l0,3.5a7.638,7.638 0 0 0 -4.491,2.1a6.7,6.7 0 0 0 -1.857,4.869a6.589,6.589 0 0 0 1.733,4.736a13.163,13.163 0 0 0 5.628,2.995a11.327,11.327 0 0 1 4.1,2.141a3.605,3.605 0 0 1 1.064,2.4l-0.014,0.01l0.009,0.316a3.64,3.64 0 0 1 -1.328,2.928a5.368,5.368 0 0 1 -3.357,1.185c-0.073,0 -0.148,0 -0.283,0a5.419,5.419 0 0 1 -3.904,-1.346a5.017,5.017 0 0 1 -1.4,-3.763l0.033,-0.579l-3.148,0l-0.028,0.516a7.908,7.908 0 0 0 2.043,5.728a8.307,8.307 0 0 0 5.14,2.289l0,3.256l2.818,0l0,-3.282a8,8 0 0 0 4.653,-2.078a6.581,6.581 0 0 0 1.91,-4.887a7.018,7.018 0 0 0 -0.742,-3.326a6.777,6.777 0 0 0 -2.21,-2.4" class="a"/>
   <path id="svg_12" fill="#28aa7f" d="m58.067,37.452l0,-4.519a13.512,13.512 0 0 0 -2.143,-8.05a7.811,7.811 0 0 0 -1.024,-1.007a7.9,7.9 0 0 0 -11.176,1.169a13.942,13.942 0 0 0 -2.03,8.227l0,4.428a13.746,13.746 0 0 0 2.138,8.153a7.839,7.839 0 0 0 12.223,-0.117a14.251,14.251 0 0 0 2.008,-8.283m-10.829,-11.686a4.6,4.6 0 0 1 6.365,1.053a11.639,11.639 0 0 1 1.326,6.2l0.012,4.816a11.6,11.6 0 0 1 -1.353,6.139a4.074,4.074 0 0 1 -3.461,1.946l-0.236,0l-0.162,0a4.142,4.142 0 0 1 -3.521,-1.972a11.614,11.614 0 0 1 -1.376,-6.247l0,-4.918a11.172,11.172 0 0 1 1.327,-5.949a4.552,4.552 0 0 1 1.081,-1.068" class="a"/>
  </g>
 </g>
</svg>