<svg width="59.31" height="70" xmlns="http://www.w3.org/2000/svg">
 <defs>
  <clipPath id="b">
   <rect id="svg_1" fill="url(#a)" height="70" width="59.31" class="a"/>
  </clipPath>
  <linearGradient gradientUnits="objectBoundingBox" y2="1" x2="0.5" x1="0.5" id="a">
   <stop stop-color="#a0762f" offset="0"/>
   <stop stop-color="#fdc778" offset="0.158"/>
   <stop stop-color="#ebcb88" offset="0.505"/>
   <stop stop-color="#009688" offset="0.854"/>
   <stop stop-color="#a0762f" offset="1"/>
  </linearGradient>
 </defs>
 <g>
  <title>Layer 1</title>
  <g id="svg_2" clip-path="url(#b)" class="b">
   <path id="svg_3" fill="#28aa7f" d="m59.31,30.443l0,-17.518l-1,-0.254a96.481,96.481 0 0 1 -14.557,-5.165a99.185,99.185 0 0 1 -13.347,-7.048l-0.74,-0.458l-0.731,0.474a99.223,99.223 0 0 1 -13.366,7.058a96.463,96.463 0 0 1 -14.559,5.138l-1.01,0.255l0,17.513c0,27.943 28,38.944 29.194,39.4l0.461,0.163l0.461,-0.163l0.135,-0.047l0.018,0c1.594,-0.583 29.041,-11.377 29.041,-39.348m-29.337,36.557l-0.318,0.13l-0.318,-0.13c-4.451,-1.821 -26.659,-12.145 -26.659,-36.562l0,-15.417l0.607,-0.174a103.211,103.211 0 0 0 13.352,-4.86a104.714,104.714 0 0 0 12.584,-6.487l0.434,-0.262l0.434,0.262a104.609,104.609 0 0 0 12.576,6.482a102.958,102.958 0 0 0 13.359,4.866l0.607,0.174l0,0.632l-0.006,14.785c0.007,24.416 -22.201,34.74 -26.652,36.561" class="a"/>
   <path id="svg_4" fill="#28aa7f" d="m47.357,23.231a1.349,1.349 0 0 0 -1.881,-0.026l-20.617,20.01l-0.594,0.576l-0.584,-0.585l-10.107,-10.107a1.339,1.339 0 0 0 -1.871,1.906l12.452,12.445l23.211,-22.323a1.348,1.348 0 0 0 -0.009,-1.9" class="a"/>
  </g>
 </g>
</svg>